<svg xmlns="http://www.w3.org/2000/svg" viewBox="0 0 120 120" fill="none">
  <defs>
    <linearGradient id="bg" x1="0" y1="0" x2="120" y2="120">
      <stop offset="0%" stop-color="#0b1020"/>
      <stop offset="55%" stop-color="#152a52"/>
      <stop offset="100%" stop-color="#2a1840"/>
    </linearGradient>
    <radialGradient id="glow" cx="50%" cy="42%" r="45%">
      <stop offset="0%" stop-color="#5eead4" stop-opacity="0.22"/>
      <stop offset="100%" stop-color="#5eead4" stop-opacity="0"/>
    </radialGradient>
  </defs>
  <rect width="120" height="120" fill="url(#bg)"/>
  <circle cx="60" cy="52" r="38" fill="url(#glow)"/>
  <!-- viewfinder corners -->
  <path d="M22 28h14M22 28v14M98 28H84M98 28v14M22 92h14M22 92V78M98 92H84M98 92V78" stroke="#5eead4" stroke-width="2" stroke-linecap="round" opacity="0.85"/>
  <!-- mesh network -->
  <g stroke="#e8f4ff" stroke-width="0.65" opacity="0.75">
    <path d="M42 38 L52 34 L62 36 L72 40 L78 48 L80 58 L78 68 L72 76 L62 82 L52 84 L42 80 L36 72 L34 62 L36 52 L42 44 Z"/>
    <path d="M48 44 L60 42 L72 46"/>
    <path d="M38 58 L48 54 L60 52 L72 54 L82 58"/>
    <path d="M40 68 L52 64 L60 62 L68 64 L80 68"/>
    <path d="M52 42 L54 58 L56 74"/>
    <path d="M68 44 L66 60 L64 76"/>
    <path d="M44 50 L56 56 L68 50"/>
    <path d="M46 66 L60 70 L74 66"/>
    <path d="M60 52 L72 62 L60 74 L48 62 Z" opacity="0.5"/>
  </g>
  <g stroke="#7dd3fc" stroke-width="0.45" opacity="0.45">
    <line x1="30" y1="48" x2="90" y2="52"/>
    <line x1="28" y1="62" x2="92" y2="64"/>
    <line x1="34" y1="76" x2="86" y2="74"/>
    <line x1="60" y1="32" x2="60" y2="88"/>
  </g>
  <!-- nodes -->
  <g fill="#a5f3fc">
    <circle cx="52" cy="44" r="1.2"/><circle cx="68" cy="46" r="1.2"/>
    <circle cx="48" cy="58" r="1.2"/><circle cx="72" cy="60" r="1.2"/>
    <circle cx="56" cy="72" r="1.2"/><circle cx="64" cy="70" r="1.2"/>
    <circle cx="60" cy="54" r="1.5"/>
  </g>
</svg>
